<?xml version="1.0" encoding="UTF-8"?>
<svg viewBox="0 0 377.25 97.354" xmlns="http://www.w3.org/2000/svg" data-type="ugc">
    <g>
        <defs>
            <filter height="97.354" width="377.25" y="0" x="0" id="ce221b20-6e1c-4e6d-8d80-6f4ea2a34407">
                <feOffset dy="3"/>
                <feGaussianBlur result="blur" stdDeviation="3"/>
                <feFlood flood-opacity=".161"/>
                <feComposite in2="blur" operator="in"/>
                <feComposite in="SourceGraphic"/>
            </filter>
        </defs>
        <g>
            <path fill="#ffffff" d="M368.25 45.677v-.001c0 21.913-17.764 39.677-39.677 39.677H48.677C26.764 85.353 9 67.589 9 45.676v.001C9 23.764 26.764 6 48.677 6h279.896c21.913 0 39.677 17.764 39.677 39.677z" transform="translate(0 -.003)" filter="url(#ce221b20-6e1c-4e6d-8d80-6f4ea2a34407)"/>
            <path d="M50.559 55.728l-9.677-9.7 9.677-9.7-2.979-2.979L34.903 46.03 47.58 58.707z" fill="#464646"/>
            <path d="M18 71.384V20.677h50.707v50.707z" fill="none"/>
            <g>
                <path d="M95.5 53.077a9.6 9.6 0 0 1-1.1 4.7 7.618 7.618 0 0 1-2.9 3 13.22 13.22 0 0 1-4.2 1.7 25.2 25.2 0 0 1-4.8.5H69v-34h13.5a18.1 18.1 0 0 1 4 .4 10.944 10.944 0 0 1 3.7 1.4 7.755 7.755 0 0 1 2.7 2.7 8.06 8.06 0 0 1 1.1 4.3 7.349 7.349 0 0 1-1.5 4.7 9.471 9.471 0 0 1-4 2.7v.1a10.708 10.708 0 0 1 2.7.9 7.231 7.231 0 0 1 2.2 1.7 9.736 9.736 0 0 1 1.5 2.4 5.808 5.808 0 0 1 .6 2.8zm-9.3-14.2a2.564 2.564 0 0 0-1.3-2.5 8.113 8.113 0 0 0-3.9-.8h-4v7h4.4a6.4 6.4 0 0 0 3.6-.9 3.1 3.1 0 0 0 1.2-2.8zm1.1 13.5a2.871 2.871 0 0 0-1.6-2.9 10.136 10.136 0 0 0-4.2-.8h-4.6v7.8h4.6a15.023 15.023 0 0 0 2-.2 6.032 6.032 0 0 0 1.9-.6 4.071 4.071 0 0 0 1.4-1.2 4.648 4.648 0 0 0 .5-2.1z" fill="#464646"/>
                <path d="M100.1 42.377a12.983 12.983 0 0 1 4.9-3 19 19 0 0 1 5.7-1 15.33 15.33 0 0 1 5.1.7 8.215 8.215 0 0 1 3.4 2.3 9.5 9.5 0 0 1 1.9 3.9 23.443 23.443 0 0 1 .6 5.6v12h-7.2v-2.4h-.1a5.414 5.414 0 0 1-2.8 2.3 10.571 10.571 0 0 1-4 .8 10.321 10.321 0 0 1-3-.4 11.82 11.82 0 0 1-2.8-1.2 7.813 7.813 0 0 1-2.1-2.3 7.667 7.667 0 0 1-.8-3.6 6.443 6.443 0 0 1 1.4-4.2 8.18 8.18 0 0 1 3.6-2.4 21.577 21.577 0 0 1 5-1.2 48.433 48.433 0 0 1 5.3-.3v-.4a2.857 2.857 0 0 0-1.2-2.6 5.131 5.131 0 0 0-3.1-.8 7.111 7.111 0 0 0-3.2.7 17.768 17.768 0 0 0-2.7 1.7zm14.5 10.2h-1a22.607 22.607 0 0 0-2.6.1 8.493 8.493 0 0 0-2.4.5 4.043 4.043 0 0 0-1.7 1 2.412 2.412 0 0 0-.7 1.7 2.663 2.663 0 0 0 .3 1.2 3.044 3.044 0 0 0 .8.8 3.583 3.583 0 0 0 1.1.4 4.87 4.87 0 0 0 1.2.1 4.924 4.924 0 0 0 3.7-1.3 5.271 5.271 0 0 0 1.3-3.6v-.9z" fill="#464646"/>
                <path d="M144.2 46.877a5.125 5.125 0 0 0-1.8-1.4 5.186 5.186 0 0 0-2.4-.5 5.932 5.932 0 0 0-2.3.5 5.5 5.5 0 0 0-1.7 1.3 5.242 5.242 0 0 0-1.1 1.9 6.051 6.051 0 0 0-.4 2.4 6.722 6.722 0 0 0 .4 2.4 5.015 5.015 0 0 0 1.1 1.9 4.628 4.628 0 0 0 1.8 1.3 5.932 5.932 0 0 0 2.3.5 6.875 6.875 0 0 0 2.4-.5 4.312 4.312 0 0 0 1.9-1.3l4.4 5.3a11.038 11.038 0 0 1-3.8 2.3 16.363 16.363 0 0 1-5 .8 15.119 15.119 0 0 1-5.3-.9 13.139 13.139 0 0 1-4.3-2.5 10.355 10.355 0 0 1-2.8-4 14.545 14.545 0 0 1 0-10.6 11.538 11.538 0 0 1 2.8-4 10.85 10.85 0 0 1 4.3-2.5 14.961 14.961 0 0 1 5.2-.9 22.742 22.742 0 0 1 2.6.2c.8.2 1.7.4 2.4.6a14.72 14.72 0 0 1 2.2 1 7.627 7.627 0 0 1 1.7 1.3z" fill="#464646"/>
                <path d="M177.5 62.977h-9.7l-7.8-11.5h-.1v11.5H152v-36.3h7.9v22.1h.1l7.6-9.7h9.6l-9.2 10.8z" fill="#464646"/>
                <path d="M214.2 62.977v-14.2H201v14.2h-8.2v-34h8.2v12.9h13.2v-12.9h8.2v34z" fill="#464646"/>
                <path d="M254.4 50.977a12.868 12.868 0 0 1-1.1 5.3 11.78 11.78 0 0 1-2.9 4 12.912 12.912 0 0 1-4.2 2.6 14.9 14.9 0 0 1-10.2 0 12.913 12.913 0 0 1-4.2-2.6 11.78 11.78 0 0 1-2.9-4 13.22 13.22 0 0 1-1.1-5.3 12.868 12.868 0 0 1 1.1-5.3 11.78 11.78 0 0 1 2.9-4 12.672 12.672 0 0 1 4.2-2.5 14.9 14.9 0 0 1 10.2 0 12.673 12.673 0 0 1 4.2 2.5 11.78 11.78 0 0 1 2.9 4 12.868 12.868 0 0 1 1.1 5.3zm-7.6 0a6.2 6.2 0 0 0-.4-2.3 5.926 5.926 0 0 0-1.1-1.9 6.228 6.228 0 0 0-1.8-1.4 4.709 4.709 0 0 0-2.4-.5 6.042 6.042 0 0 0-2.4.5 6.227 6.227 0 0 0-1.8 1.4 7.24 7.24 0 0 0-1.1 1.9 5.867 5.867 0 0 0-.4 2.3 6.2 6.2 0 0 0 .4 2.3 5.639 5.639 0 0 0 1.1 2 4.888 4.888 0 0 0 1.8 1.4 4.709 4.709 0 0 0 2.4.5 6.042 6.042 0 0 0 2.4-.5 6.227 6.227 0 0 0 1.8-1.4 7.813 7.813 0 0 0 1.1-2 6.2 6.2 0 0 0 .4-2.3z" fill="#464646"/>
                <path d="M289.9 62.977v-13.1a11.486 11.486 0 0 0-.1-1.9 6.035 6.035 0 0 0-.5-1.6 5.239 5.239 0 0 0-1-1.1 2.861 2.861 0 0 0-1.7-.4 3.167 3.167 0 0 0-3 1.6 4.357 4.357 0 0 0-.7 1.7 6.153 6.153 0 0 0-.2 1.9v12.9h-7.9v-13.6a6.182 6.182 0 0 0-.8-3.3 2.857 2.857 0 0 0-2.6-1.2 3.388 3.388 0 0 0-2.9 1.5 6.092 6.092 0 0 0-1 3.6v13h-8.1v-23.9h7.6v3.3h.1a7.165 7.165 0 0 1 1.1-1.5 6.984 6.984 0 0 1 1.6-1.3 7.217 7.217 0 0 1 2-.9 10.074 10.074 0 0 1 2.5-.3 8.7 8.7 0 0 1 4.4 1.1 7.387 7.387 0 0 1 2.8 3 9.884 9.884 0 0 1 3.1-3 9.987 9.987 0 0 1 8.7-.2 8.685 8.685 0 0 1 2.7 2.3 8.593 8.593 0 0 1 1.5 3.2 13.987 13.987 0 0 1 .5 3.4v14.8h-8.1z" fill="#464646"/>
                <path d="M327.4 51.377v1.9h-17.3a4.779 4.779 0 0 0 .6 1.8 5.706 5.706 0 0 0 1.3 1.4 5.076 5.076 0 0 0 1.8.9 6.929 6.929 0 0 0 2 .3 6.565 6.565 0 0 0 3.2-.7 6.25 6.25 0 0 0 2.1-1.8l5.5 3.5a11.6 11.6 0 0 1-4.4 3.8 14.353 14.353 0 0 1-6.4 1.3 17.015 17.015 0 0 1-5.1-.8 14.387 14.387 0 0 1-4.2-2.4 10.675 10.675 0 0 1-2.8-4 13.334 13.334 0 0 1-1-5.4 12.634 12.634 0 0 1 3.7-9.3 12.462 12.462 0 0 1 4.1-2.6 14.4 14.4 0 0 1 5.1-.9 12.085 12.085 0 0 1 4.8.9 9.936 9.936 0 0 1 3.8 2.6 11.307 11.307 0 0 1 2.5 4.1 20.825 20.825 0 0 1 .7 5.4zm-7.2-3.1a4.717 4.717 0 0 0-1.2-3.2 4.459 4.459 0 0 0-3.5-1.3 4.637 4.637 0 0 0-2.1.4 5.854 5.854 0 0 0-1.7 1 4.428 4.428 0 0 0-1.2 1.5 5.34 5.34 0 0 0-.5 1.8h10.2z" fill="#464646"/>
            </g>
        </g>
    </g>
</svg>
