<?xml version="1.0" encoding="utf-8"?>
<!-- Generator: Adobe Illustrator 22.1.0, SVG Export Plug-In . SVG Version: 6.00 Build 0)  -->
<svg version="1.1" id="Layer_1" xmlns="http://www.w3.org/2000/svg" xmlns:xlink="http://www.w3.org/1999/xlink" x="0px" y="0px"
	 viewBox="0 0 212 84" style="enable-background:new 0 0 212 84;" xml:space="preserve">
<style type="text/css">
	.st0{fill:#FFFFFF;}
	.st1{enable-background:new    ;}
	.st2{fill:#464646;}
	.st3{fill:none;}
</style>
<g id="Group_1460" transform="translate(-22 -26)">
	<g transform="matrix(1, 0, 0, 1, 22, 26)">
		<path id="Rectangle_549-2" class="st0" d="M42,6h128c18.2,0,33,14.8,33,33l0,0c0,18.2-14.8,33-33,33H42C23.8,72,9,57.2,9,39l0,0
			C9,20.8,23.8,6,42,6z"/>
	</g>
	<g class="st1">
		<path class="st2" d="M103.8,78V66.2h-11V78h-6.8V49.7h6.8v10.7h11V49.7h6.8V78H103.8z"/>
		<path class="st2" d="M137.2,68c0,1.6-0.3,3.1-0.9,4.4c-0.6,1.3-1.4,2.4-2.4,3.4s-2.2,1.6-3.5,2.1c-1.3,0.5-2.8,0.8-4.3,0.8
			c-1.5,0-2.9-0.3-4.3-0.8c-1.3-0.5-2.5-1.2-3.5-2.1s-1.8-2-2.4-3.4c-0.6-1.3-0.9-2.8-0.9-4.4c0-1.6,0.3-3.1,0.9-4.4
			c0.6-1.3,1.4-2.4,2.4-3.3s2.2-1.6,3.5-2.1c1.3-0.5,2.8-0.7,4.3-0.7c1.5,0,2.9,0.2,4.3,0.7c1.3,0.5,2.5,1.2,3.5,2.1s1.8,2,2.4,3.3
			C136.9,64.9,137.2,66.3,137.2,68z M130.9,68c0-0.6-0.1-1.3-0.3-1.9c-0.2-0.6-0.5-1.2-0.9-1.6c-0.4-0.5-0.9-0.8-1.5-1.1
			c-0.6-0.3-1.3-0.4-2-0.4c-0.8,0-1.5,0.1-2,0.4c-0.6,0.3-1.1,0.7-1.5,1.1c-0.4,0.5-0.7,1-0.9,1.6c-0.2,0.6-0.3,1.2-0.3,1.9
			s0.1,1.3,0.3,1.9c0.2,0.6,0.5,1.2,0.9,1.7c0.4,0.5,0.9,0.9,1.5,1.2c0.6,0.3,1.3,0.4,2,0.4c0.8,0,1.5-0.1,2-0.4
			c0.6-0.3,1.1-0.7,1.5-1.2c0.4-0.5,0.7-1,0.9-1.7C130.8,69.2,130.9,68.6,130.9,68z"/>
		<path class="st2" d="M166.8,78V67.1c0-0.6,0-1.1-0.1-1.6s-0.2-1-0.4-1.3c-0.2-0.4-0.5-0.7-0.9-0.9c-0.4-0.2-0.8-0.3-1.4-0.3
			c-0.6,0-1,0.1-1.5,0.4c-0.4,0.2-0.8,0.6-1,1c-0.3,0.4-0.5,0.9-0.6,1.4c-0.1,0.5-0.2,1.1-0.2,1.6V78h-6.6V66.6
			c0-1.1-0.2-2.1-0.7-2.7c-0.5-0.7-1.2-1-2.2-1c-1,0-1.8,0.4-2.4,1.2c-0.6,0.8-0.9,1.8-0.9,3V78h-6.6V58.1h6.4v2.8h0.1
			c0.2-0.4,0.5-0.8,0.9-1.2c0.4-0.4,0.8-0.8,1.3-1.1s1.1-0.6,1.7-0.7c0.6-0.2,1.3-0.3,2.1-0.3c1.4,0,2.7,0.3,3.7,0.9
			s1.8,1.4,2.3,2.5c0.7-1,1.5-1.9,2.6-2.5s2.3-0.9,3.8-0.9c1.4,0,2.5,0.2,3.4,0.7c0.9,0.5,1.7,1.1,2.2,1.9c0.6,0.8,1,1.7,1.2,2.6
			c0.3,1,0.4,1.9,0.4,2.9V78H166.8z"/>
		<path class="st2" d="M198.1,68.3c0,0.3,0,0.5,0,0.8s0,0.5,0,0.8h-14.4c0.1,0.6,0.2,1.1,0.5,1.5c0.3,0.5,0.6,0.8,1.1,1.2
			c0.4,0.3,0.9,0.6,1.5,0.8c0.5,0.2,1.1,0.3,1.7,0.3c1,0,1.9-0.2,2.6-0.6c0.7-0.4,1.3-0.9,1.8-1.5l4.6,2.9c-0.9,1.4-2.2,2.4-3.7,3.1
			s-3.3,1.1-5.3,1.1c-1.5,0-2.9-0.2-4.2-0.7c-1.3-0.5-2.5-1.1-3.5-2s-1.8-2-2.4-3.3c-0.6-1.3-0.9-2.8-0.9-4.5c0-1.6,0.3-3.1,0.8-4.4
			c0.6-1.3,1.3-2.4,2.3-3.4c1-0.9,2.1-1.6,3.4-2.1s2.7-0.8,4.2-0.8c1.5,0,2.8,0.2,4,0.7c1.2,0.5,2.3,1.2,3.2,2.1
			c0.9,0.9,1.6,2.1,2.1,3.4C197.9,65.1,198.1,66.6,198.1,68.3z M192.1,65.8c0-1-0.3-1.9-1-2.7c-0.7-0.7-1.6-1.1-2.9-1.1
			c-0.6,0-1.2,0.1-1.8,0.3s-1,0.5-1.4,0.8c-0.4,0.3-0.7,0.8-1,1.2c-0.2,0.5-0.4,1-0.4,1.5H192.1z"/>
	</g>
	<g id="arrow_up" transform="translate(38 90.707) rotate(-90)">
		<path id="Path_950" class="st2" d="M15.7,32.6l9.7-9.7l9.7,9.7l3-3L25.4,16.9L12.7,29.6L15.7,32.6z"/>
		<path id="Path_951" class="st3" d="M0,0h50.7v50.7H0V0z"/>
	</g>
</g>
</svg>
