<?xml version="1.0" encoding="utf-8"?>
<!-- Generator: Adobe Illustrator 22.1.0, SVG Export Plug-In . SVG Version: 6.00 Build 0)  -->
<svg version="1.1" id="Layer_1" xmlns="http://www.w3.org/2000/svg" xmlns:xlink="http://www.w3.org/1999/xlink" x="0px" y="0px"
	 viewBox="0 0 242 87" style="enable-background:new 0 0 242 87;" xml:space="preserve">
<style type="text/css">
	.st0{enable-background:new    ;}
	.st1{fill:#FFFFFF;}
</style>
<g class="st0">
	<path class="st1" d="M20.7,24.1V55h-9.4V24.1h-11v-8h31.4v8H20.7z"/>
	<path class="st1" d="M49.9,35c-0.4-0.1-0.8-0.2-1.2-0.2c-0.4,0-0.8-0.1-1.1-0.1c-1.2,0-2.2,0.2-3.1,0.7c-0.8,0.4-1.5,1-2,1.6
		c-0.5,0.6-0.9,1.3-1.1,2c-0.2,0.7-0.3,1.4-0.3,1.9v14h-9V27.6h8.7v4H41c0.7-1.4,1.7-2.5,3-3.4c1.3-0.9,2.8-1.3,4.5-1.3
		c0.4,0,0.7,0,1.1,0.1c0.3,0,0.6,0.1,0.9,0.2L49.9,35z"/>
	<path class="st1" d="M54.3,31.3c1.6-1.5,3.5-2.7,5.6-3.5c2.1-0.8,4.3-1.2,6.6-1.2c2.3,0,4.3,0.3,5.9,0.9c1.6,0.6,2.9,1.4,3.9,2.6
		c1,1.2,1.7,2.7,2.2,4.5c0.5,1.8,0.7,4,0.7,6.5V55h-8.2v-2.9h-0.2c-0.7,1.1-1.8,2-3.2,2.6c-1.4,0.6-2.9,0.9-4.6,0.9
		c-1.1,0-2.2-0.1-3.4-0.4c-1.2-0.3-2.2-0.8-3.2-1.4c-1-0.7-1.8-1.5-2.4-2.6C53.3,50,53,48.7,53,47.1c0-2,0.5-3.6,1.6-4.8
		c1.1-1.2,2.5-2.1,4.2-2.8c1.7-0.7,3.6-1.1,5.7-1.3s4.1-0.3,6.1-0.3v-0.4c0-1.4-0.5-2.4-1.4-3c-1-0.6-2.1-1-3.5-1
		c-1.3,0-2.5,0.3-3.7,0.8c-1.2,0.6-2.2,1.2-3.1,2L54.3,31.3z M70.9,43.1h-1.2c-1,0-2,0-3,0.1c-1,0.1-1.9,0.3-2.7,0.5
		c-0.8,0.3-1.4,0.6-2,1.1c-0.5,0.5-0.8,1.1-0.8,2c0,0.5,0.1,1,0.4,1.3c0.2,0.4,0.5,0.7,0.9,0.9c0.4,0.2,0.8,0.4,1.3,0.5
		c0.5,0.1,0.9,0.1,1.4,0.1c1.8,0,3.2-0.5,4.2-1.5c1-1,1.5-2.4,1.5-4.1V43.1z"/>
	<path class="st1" d="M106.4,36.5c-0.5-0.7-1.2-1.2-2.1-1.6s-1.8-0.6-2.7-0.6c-1,0-1.8,0.2-2.6,0.6c-0.8,0.4-1.4,0.9-2,1.5
		c-0.5,0.6-1,1.4-1.3,2.2c-0.3,0.8-0.5,1.7-0.5,2.7c0,1,0.1,1.9,0.4,2.7c0.3,0.8,0.7,1.6,1.3,2.2c0.6,0.6,1.2,1.1,2,1.5
		c0.8,0.4,1.7,0.5,2.7,0.5c0.9,0,1.8-0.2,2.7-0.5c0.9-0.3,1.6-0.9,2.2-1.5l5,6.1c-1.1,1.1-2.6,2-4.4,2.6c-1.8,0.6-3.7,0.9-5.7,0.9
		c-2.2,0-4.2-0.3-6.1-1c-1.9-0.7-3.5-1.6-4.9-2.9c-1.4-1.3-2.5-2.8-3.3-4.6c-0.8-1.8-1.2-3.8-1.2-6.1c0-2.2,0.4-4.3,1.2-6
		c0.8-1.8,1.9-3.3,3.3-4.6c1.4-1.3,3-2.2,4.9-2.9c1.9-0.7,3.9-1,6-1c1,0,2,0.1,2.9,0.3c1,0.2,1.9,0.4,2.8,0.7
		c0.9,0.3,1.7,0.7,2.5,1.2c0.8,0.5,1.4,1,2,1.5L106.4,36.5z"/>
	<path class="st1" d="M144,41.6c0,0.4,0,0.7,0,1.1s0,0.7-0.1,1h-19.9c0.1,0.8,0.3,1.5,0.7,2.1c0.4,0.6,0.9,1.2,1.5,1.6
		c0.6,0.5,1.3,0.8,2,1.1c0.8,0.3,1.5,0.4,2.3,0.4c1.4,0,2.6-0.3,3.6-0.8c1-0.5,1.8-1.2,2.4-2.1l6.3,4c-1.3,1.9-3,3.3-5.1,4.3
		c-2.1,1-4.6,1.5-7.3,1.5c-2.1,0-4-0.3-5.8-1c-1.8-0.6-3.4-1.6-4.8-2.8c-1.4-1.2-2.5-2.7-3.2-4.5c-0.8-1.8-1.2-3.9-1.2-6.2
		c0-2.2,0.4-4.3,1.2-6.1c0.8-1.8,1.8-3.4,3.1-4.6c1.3-1.3,2.9-2.2,4.7-2.9c1.8-0.7,3.7-1,5.8-1c2,0,3.9,0.3,5.6,1
		c1.7,0.7,3.1,1.7,4.3,2.9c1.2,1.3,2.2,2.8,2.8,4.7C143.7,37.2,144,39.3,144,41.6z M135.7,38.2c0-1.4-0.4-2.7-1.3-3.7
		c-0.9-1-2.2-1.5-4-1.5c-0.9,0-1.7,0.1-2.4,0.4c-0.7,0.3-1.4,0.7-1.9,1.1c-0.5,0.5-1,1-1.3,1.7c-0.3,0.6-0.5,1.3-0.5,2H135.7z"/>
	<path class="st1" d="M169,35c-0.4-0.1-0.8-0.2-1.2-0.2c-0.4,0-0.8-0.1-1.1-0.1c-1.2,0-2.2,0.2-3.1,0.7c-0.8,0.4-1.5,1-2,1.6
		c-0.5,0.6-0.9,1.3-1.1,2c-0.2,0.7-0.3,1.4-0.3,1.9v14h-9V27.6h8.7v4h0.1c0.7-1.4,1.7-2.5,3-3.4c1.3-0.9,2.8-1.3,4.5-1.3
		c0.4,0,0.7,0,1.1,0.1c0.3,0,0.6,0.1,0.9,0.2L169,35z"/>
	<path class="st1" d="M202.7,41.2c0,2.2-0.4,4.3-1.2,6.1s-1.9,3.4-3.3,4.6c-1.4,1.3-3,2.2-4.8,2.9s-3.8,1-5.9,1c-2.1,0-4-0.3-5.9-1
		s-3.5-1.7-4.8-2.9s-2.5-2.8-3.3-4.6c-0.8-1.8-1.2-3.8-1.2-6.1s0.4-4.3,1.2-6.1c0.8-1.8,1.9-3.3,3.3-4.6c1.4-1.2,3-2.2,4.8-2.9
		s3.8-1,5.9-1c2.1,0,4.1,0.3,5.9,1s3.4,1.6,4.8,2.9c1.4,1.2,2.5,2.8,3.3,4.6C202.3,36.9,202.7,39,202.7,41.2z M194,41.2
		c0-0.9-0.1-1.7-0.4-2.6c-0.3-0.8-0.7-1.6-1.3-2.2c-0.5-0.6-1.2-1.2-2-1.6s-1.7-0.6-2.8-0.6s-2,0.2-2.8,0.6s-1.5,0.9-2,1.6
		s-0.9,1.4-1.2,2.2c-0.3,0.8-0.4,1.7-0.4,2.6s0.1,1.7,0.4,2.6c0.3,0.8,0.7,1.6,1.2,2.3c0.6,0.7,1.2,1.2,2,1.6
		c0.8,0.4,1.7,0.6,2.8,0.6s2-0.2,2.8-0.6c0.8-0.4,1.5-0.9,2-1.6c0.5-0.7,1-1.4,1.2-2.3S194,42.1,194,41.2z"/>
	<path class="st1" d="M210.2,55V13.4h9.2V55H210.2z"/>
	<path class="st1" d="M228.2,55V13.4h9.2V55H228.2z"/>
</g>
<g class="st0">
	<path class="st1" d="M1.5,72.9c0.4-0.9,0.9-1.7,1.6-2.4c0.7-0.7,1.5-1.2,2.4-1.6s1.9-0.6,2.9-0.6c1,0,2,0.2,2.9,0.6
		c0.9,0.4,1.7,0.9,2.4,1.6c0.7,0.7,1.2,1.5,1.6,2.4c0.4,0.9,0.6,1.9,0.6,2.9c0,1.1-0.2,2.1-0.6,3c-0.4,0.9-0.9,1.7-1.6,2.4
		c-0.7,0.7-1.5,1.2-2.4,1.6c-0.9,0.4-1.9,0.6-2.9,0.6c-1,0-2-0.2-2.9-0.6s-1.7-0.9-2.4-1.6c-0.7-0.7-1.2-1.5-1.6-2.4
		c-0.4-0.9-0.6-1.9-0.6-3C0.9,74.8,1.1,73.8,1.5,72.9z M2.7,78.4c0.3,0.8,0.7,1.5,1.3,2c0.6,0.6,1.2,1,2,1.3
		c0.8,0.3,1.6,0.5,2.5,0.5c0.9,0,1.7-0.2,2.4-0.5c0.7-0.3,1.4-0.8,2-1.3c0.6-0.6,1-1.2,1.3-2c0.3-0.8,0.5-1.6,0.5-2.5
		c0-0.9-0.2-1.7-0.5-2.5c-0.3-0.8-0.7-1.4-1.3-2c-0.6-0.6-1.2-1-2-1.3c-0.7-0.3-1.6-0.5-2.4-0.5c-0.9,0-1.7,0.2-2.5,0.5
		c-0.8,0.3-1.4,0.8-2,1.3c-0.6,0.6-1,1.2-1.3,2c-0.3,0.8-0.5,1.6-0.5,2.5C2.2,76.7,2.4,77.6,2.7,78.4z M11,79.6
		c-0.7,0.6-1.5,0.8-2.4,0.8c-0.7,0-1.3-0.1-1.8-0.4s-1-0.6-1.4-1c-0.4-0.4-0.7-0.9-0.9-1.5c-0.2-0.6-0.3-1.2-0.3-1.8
		c0-0.7,0.1-1.3,0.3-1.8c0.2-0.6,0.5-1,0.9-1.4c0.4-0.4,0.8-0.7,1.4-0.9c0.5-0.2,1.2-0.3,1.8-0.3c1,0,1.8,0.3,2.5,0.8
		c0.7,0.5,1.1,1.3,1.3,2.3h-1.3c-0.1-0.6-0.4-1-0.8-1.4c-0.4-0.4-1-0.5-1.7-0.5c-0.5,0-0.9,0.1-1.3,0.3s-0.7,0.4-1,0.7
		c-0.3,0.3-0.4,0.7-0.6,1.1c-0.1,0.4-0.2,0.9-0.2,1.3c0,0.5,0.1,0.9,0.2,1.3c0.1,0.4,0.3,0.8,0.6,1.1c0.3,0.3,0.6,0.6,1,0.8
		c0.4,0.2,0.8,0.3,1.3,0.3c0.7,0,1.2-0.2,1.7-0.6c0.4-0.4,0.7-0.9,0.8-1.5h1.3C12.2,78.3,11.7,79,11,79.6z"/>
	<path class="st1" d="M23,71.8c0.2-0.6,0.5-1.1,0.9-1.6c0.4-0.4,0.9-0.8,1.5-1c0.6-0.3,1.3-0.4,2-0.4c0.6,0,1.2,0.1,1.7,0.3
		s1,0.4,1.4,0.8c0.4,0.3,0.7,0.8,1,1.3c0.2,0.5,0.3,1.1,0.3,1.8c0,0.6-0.1,1.2-0.3,1.7c-0.2,0.5-0.4,0.9-0.8,1.3
		c-0.3,0.4-0.7,0.7-1.1,1c-0.4,0.3-0.8,0.6-1.3,0.9c-0.4,0.3-0.9,0.5-1.3,0.8c-0.4,0.3-0.8,0.5-1.2,0.8c-0.4,0.3-0.7,0.6-0.9,1
		c-0.3,0.3-0.4,0.7-0.5,1.2h7.3V83h-9.3c0.1-0.8,0.2-1.6,0.5-2.2c0.2-0.6,0.5-1.1,0.9-1.5c0.4-0.4,0.8-0.8,1.2-1.2
		c0.5-0.3,0.9-0.6,1.4-0.9c0.6-0.4,1.1-0.7,1.6-1s0.8-0.6,1.1-1c0.3-0.3,0.5-0.7,0.7-1c0.2-0.4,0.2-0.8,0.2-1.3c0-0.4-0.1-0.7-0.2-1
		c-0.1-0.3-0.3-0.6-0.6-0.8c-0.2-0.2-0.5-0.4-0.9-0.5c-0.3-0.1-0.7-0.2-1.1-0.2c-0.5,0-0.9,0.1-1.3,0.3c-0.4,0.2-0.6,0.5-0.9,0.8
		c-0.2,0.3-0.4,0.7-0.5,1.1c-0.1,0.4-0.1,0.8-0.1,1.3h-1.7C22.8,73.1,22.9,72.5,23,71.8z"/>
	<path class="st1" d="M33.9,74.4c0-0.6,0.1-1.1,0.2-1.6s0.3-1,0.5-1.5c0.2-0.5,0.5-0.9,0.8-1.3s0.8-0.6,1.3-0.9
		c0.5-0.2,1.2-0.3,1.9-0.3c0.7,0,1.4,0.1,1.9,0.3c0.5,0.2,1,0.5,1.3,0.9s0.6,0.8,0.8,1.3c0.2,0.5,0.4,1,0.5,1.5s0.2,1.1,0.2,1.6
		c0,0.6,0,1.1,0,1.6c0,0.5,0,1.1,0,1.6c0,0.6-0.1,1.1-0.2,1.6s-0.3,1-0.5,1.5c-0.2,0.5-0.5,0.9-0.8,1.2c-0.3,0.4-0.8,0.6-1.3,0.9
		c-0.5,0.2-1.2,0.3-1.9,0.3c-0.7,0-1.4-0.1-1.9-0.3c-0.5-0.2-1-0.5-1.3-0.9c-0.3-0.4-0.6-0.8-0.8-1.2c-0.2-0.5-0.4-1-0.5-1.5
		s-0.2-1.1-0.2-1.6c0-0.6,0-1.1,0-1.6C33.9,75.5,33.9,75,33.9,74.4z M35.8,77.8c0,0.7,0.1,1.3,0.3,1.9c0.2,0.6,0.5,1.1,0.9,1.5
		c0.4,0.4,1,0.6,1.7,0.6c0.7,0,1.3-0.2,1.7-0.6c0.4-0.4,0.7-0.9,0.9-1.5s0.3-1.2,0.3-1.9c0-0.7,0-1.3,0-1.8c0-0.3,0-0.7,0-1.1
		c0-0.4,0-0.8-0.1-1.3c-0.1-0.4-0.1-0.8-0.3-1.2c-0.1-0.4-0.3-0.8-0.5-1s-0.5-0.5-0.8-0.7c-0.3-0.2-0.7-0.3-1.2-0.3
		c-0.5,0-0.9,0.1-1.2,0.3c-0.3,0.2-0.6,0.4-0.8,0.7c-0.2,0.3-0.4,0.7-0.5,1c-0.1,0.4-0.2,0.8-0.3,1.2c-0.1,0.4-0.1,0.8-0.1,1.3
		s0,0.8,0,1.1C35.7,76.6,35.7,77.2,35.8,77.8z"/>
	<path class="st1" d="M49.6,83V72.8h-3.7v-1.4c0.5,0,0.9,0,1.4-0.1c0.5-0.1,0.9-0.2,1.2-0.4c0.4-0.2,0.7-0.5,0.9-0.8
		c0.3-0.3,0.4-0.8,0.5-1.3h1.3V83H49.6z"/>
	<path class="st1" d="M56.9,70.9c0.2-0.4,0.5-0.8,0.9-1.1s0.8-0.5,1.3-0.7c0.5-0.2,1-0.2,1.6-0.2c0.8,0,1.4,0.1,2,0.3
		c0.5,0.2,1,0.5,1.3,0.8s0.6,0.7,0.8,1.2c0.2,0.4,0.2,0.9,0.2,1.3c0,0.6-0.2,1.2-0.5,1.8c-0.4,0.5-0.8,0.9-1.4,1.2
		c0.9,0.3,1.5,0.7,1.9,1.3c0.4,0.6,0.6,1.3,0.6,2.2c0,0.7-0.1,1.3-0.4,1.8s-0.6,1-1,1.4c-0.4,0.4-0.9,0.6-1.5,0.8s-1.2,0.3-1.8,0.3
		c-0.7,0-1.3-0.1-1.9-0.3c-0.6-0.2-1.1-0.4-1.5-0.8c-0.4-0.4-0.8-0.8-1-1.4c-0.2-0.5-0.4-1.2-0.4-1.9c0-0.8,0.2-1.6,0.6-2.2
		c0.4-0.6,1-1.1,1.8-1.4c-0.6-0.2-1.1-0.6-1.4-1.2c-0.4-0.5-0.5-1.1-0.5-1.8C56.6,71.9,56.7,71.3,56.9,70.9z M58.8,81
		c0.6,0.5,1.3,0.7,2.2,0.7c0.4,0,0.8-0.1,1.2-0.2c0.4-0.1,0.7-0.3,0.9-0.6c0.3-0.2,0.5-0.5,0.6-0.9c0.1-0.3,0.2-0.7,0.2-1.1
		c0-0.4-0.1-0.7-0.2-1.1s-0.4-0.6-0.6-0.9c-0.3-0.2-0.6-0.4-0.9-0.6c-0.4-0.1-0.7-0.2-1.1-0.2c-0.4,0-0.8,0.1-1.2,0.2
		c-0.4,0.1-0.7,0.3-1,0.5c-0.3,0.2-0.5,0.5-0.6,0.9c-0.2,0.3-0.2,0.7-0.2,1.1C57.9,79.9,58.2,80.5,58.8,81z M58.6,73.5
		c0.1,0.3,0.3,0.5,0.5,0.7c0.2,0.2,0.5,0.3,0.8,0.4c0.3,0.1,0.6,0.1,1,0.1c0.7,0,1.2-0.2,1.7-0.6c0.4-0.4,0.7-1,0.7-1.7
		s-0.2-1.3-0.7-1.6c-0.4-0.4-1-0.5-1.7-0.5c-0.3,0-0.7,0-1,0.1c-0.3,0.1-0.6,0.2-0.8,0.4s-0.4,0.4-0.5,0.7c-0.1,0.3-0.2,0.6-0.2,0.9
		C58.4,72.9,58.5,73.2,58.6,73.5z"/>
</g>
</svg>
