<svg id="Group_1159" data-name="Group 1159" xmlns="http://www.w3.org/2000/svg" viewBox="0 0 45.166 45.165">
  <defs>
    <style>
      .cls-1 {
        fill: #fff;
        stroke: #5f5f5f;
        stroke-width: 3px;
      }

      .cls-2 {
        fill: #5f5f5f;
      }

      .cls-3 {
        stroke: none;
      }

      .cls-4 {
        fill: none;
      }
    </style>
  </defs>
  <g id="Ellipse_77" data-name="Ellipse 77" class="cls-1" transform="translate(0 0)">
    <ellipse class="cls-3" cx="22.583" cy="22.583" rx="22.583" ry="22.583"/>
    <ellipse class="cls-4" cx="22.583" cy="22.583" rx="21.083" ry="21.083"/>
  </g>
  <g id="noun_1178092_cc" transform="translate(-3.537 4.078)">
    <g id="Group_1079" data-name="Group 1079" transform="translate(17 8.175)">
      <path id="Path_786" data-name="Path 786" class="cls-2" d="M25.8,8.175c-3.879,0-6.666,2.744-6.666,6.133v5.78a1.925,1.925,0,0,1-.817,1.866,1.721,1.721,0,0,1-.792.267.533.533,0,0,0-.525.533v3.2a.533.533,0,0,0,.533.533h5.116a3.193,3.193,0,0,0,6.3,0h5.116a.533.533,0,0,0,.533-.533v-3.2a.533.533,0,0,0-.525-.533,1.722,1.722,0,0,1-.792-.267,1.925,1.925,0,0,1-.817-1.866v-5.78C32.465,10.92,29.678,8.175,25.8,8.175Zm0,1.067c3.391,0,5.6,2.25,5.6,5.066v5.78a3.127,3.127,0,0,0,1.316,2.766,2.667,2.667,0,0,0,.817.333v2.233H18.067V23.188a2.667,2.667,0,0,0,.817-.333A3.127,3.127,0,0,0,20.2,20.088v-5.78C20.2,11.492,22.408,9.242,25.8,9.242ZM23.774,26.487h4.049a2.081,2.081,0,0,1-4.049,0Z" transform="translate(-17 -8.175)"/>
    </g>
  </g>
</svg>
