<?xml version="1.0" encoding="utf-8"?>
<!-- Generator: Adobe Illustrator 22.1.0, SVG Export Plug-In . SVG Version: 6.00 Build 0)  -->
<svg version="1.1" id="Capa_1" xmlns="http://www.w3.org/2000/svg" xmlns:xlink="http://www.w3.org/1999/xlink" x="0px" y="0px"
	 viewBox="0 0 50 50" style="enable-background:new 0 0 50 50;" xml:space="preserve">
<style type="text/css">
	.st0{fill:#797979;}
</style>
<g>
	<g>
		<path class="st0" d="M48.1,10.7c-1.7,0.8-3.5,1.3-5.4,1.5c2-1.2,3.5-3,4.2-5.2c-1.8,1.1-3.9,1.9-6,2.3c-1.7-1.8-4.2-3-6.9-3
			c-5.2,0-9.5,4.2-9.5,9.5c0,0.7,0.1,1.5,0.2,2.2C16.8,17.5,9.8,13.7,5.1,8c-0.8,1.4-1.3,3-1.3,4.8c0,3.3,1.7,6.2,4.2,7.9
			c-1.6-0.1-3-0.5-4.3-1.2v0.1c0,4.6,3.3,8.4,7.6,9.3c-0.8,0.2-1.6,0.3-2.5,0.3c-0.6,0-1.2-0.1-1.8-0.2c1.2,3.8,4.7,6.5,8.8,6.6
			c-3.2,2.5-7.3,4-11.8,4c-0.8,0-1.5,0-2.3-0.1c4.2,2.7,9.2,4.3,14.5,4.3c17.4,0,26.9-14.4,26.9-26.9l0-1.2
			C45.2,14.3,46.8,12.6,48.1,10.7z"/>
	</g>
</g>
</svg>
