<svg xmlns="http://www.w3.org/2000/svg" viewBox="0 0 1160.1 566.698">
  <defs>
    <style>
      .cls-1 {
        fill: #fff;
      }

      .cls-2 {
        fill: #172650;
      }

      .cls-3 {
        fill: #e8e5d1;
      }

      .cls-4 {
        fill: #f0d0b4;
      }

      .cls-5 {
        fill: #010101;
      }

      .cls-6, .cls-7 {
        stroke: #010101;
        stroke-miterlimit: 10;
        stroke-width: 0.5px;
      }

      .cls-7, .cls-8 {
        fill: none;
      }

      .cls-8 {
        stroke: #fff;
        stroke-linecap: round;
        stroke-linejoin: round;
      }

      .cls-9 {
        fill: #fff2d1;
      }

      .cls-10 {
        fill: #e4f3fb;
      }

      .cls-11 {
        fill: #e67273;
      }

      .cls-12 {
        fill: #ebe2a2;
      }
    </style>
  </defs>
  <g id="Intro_Whiteboard" transform="translate(-380 -298.6)">
    <g id="Layer_2_1_">
      <path id="Path_1001" data-name="Path 1001" class="cls-1" d="M1532.5,776.7H387.5a7.49,7.49,0,0,1-7.5-7.5V306.1a7.49,7.49,0,0,1,7.5-7.5H1532.6a7.49,7.49,0,0,1,7.5,7.5V769.2A7.642,7.642,0,0,1,1532.5,776.7Z"/>
    </g>
    <g id="Layer_1_1_">
      <g id="Group_1467" data-name="Group 1467">
        <path id="Path_1002" data-name="Path 1002" class="cls-2" d="M1312.2,755.3c-10.5-4.7-25.4-5.5-45-2.4,1.2,28.1.1,47-.1,61.3-.1,14.3.8,24,.8,29a38,38,0,0,0,10.8.2c1.7-13,3.6-32.7,5.4-48.4,1.7-15.7,3-27.4,3.4-34.7a2.34,2.34,0,0,1,3.9,1.7c2.5,23.8,4.4,51,5.5,81.6,7,1.1,11,1.5,11.9,1.2,1.6-52.8,3.3-78.7,3.4-89.5"/>
      </g>
      <g id="Group_1468" data-name="Group 1468">
        <path id="Path_1003" data-name="Path 1003" class="cls-3" d="M1304.3,844.7c-2-1.1-4.5-1.4-7.6-1.1a65.786,65.786,0,0,0-2.1,9.1,27.657,27.657,0,0,0,9.2-.6c.2-2.5.3-5.1.5-7.4"/>
        <path id="Path_1004" data-name="Path 1004" class="cls-3" d="M1277.4,843.5h-7.8c-.3,5.8-.4,6.7-1.7,6.9.6,2.3,1.2,2.6,2.8,2.9a6.909,6.909,0,0,0,6.6-2.8,21.558,21.558,0,0,0,.1-7"/>
        <path id="Path_1005" data-name="Path 1005" class="cls-4" d="M1312.2,753.3h3.4c-.7,5.7-1.9,8.6-3.6,8.5.1-2.7.1-5.6.2-8.5"/>
        <path id="Path_1006" data-name="Path 1006" class="cls-4" d="M1267,744.5c-.7-1-2.4-1.1-5.2-.6a39.173,39.173,0,0,1-1.7,6.7c-.1,1.1.1,2,1.7,4.2,1.5,2.3,4.2,5.9,5.7,5.8a25.4,25.4,0,0,1-.5-16.1"/>
        <path id="Path_1007" data-name="Path 1007" class="cls-4" d="M1305.5,660.5c-2.5-2.3-3.2-3.5-3.6-4.6a12.78,12.78,0,0,1-.7-3.6,42.554,42.554,0,0,1-.1-5.1,14.963,14.963,0,0,0-.3-5.4,57.428,57.428,0,0,0-3.4-8.8c-1.1-2.2-1.9-2.5-4.4-2.6s-6.9.1-14.3,4.6c-1.1,4.6-.7,5.2-.4,5.8a3.588,3.588,0,0,1,0,2.3,22.939,22.939,0,0,1-1.8,3.1c-.4.8-.2,1.1,1.8,1.8,1.2,7.3,1.5,7.5,2.1,7.7a4.508,4.508,0,0,0,2.4,0c1.3-.2,3.4-.9,4.5-1.1s1.3.1,1.5.4a2.389,2.389,0,0,1,.1,2c-.2,1.1-1,3-2.3,3,8.8.1,15,.3,18.9.5"/>
      </g>
      <g id="Group_1469" data-name="Group 1469">
        <path id="Path_1008" data-name="Path 1008" class="cls-5" d="M1259.7,854.5c.9-2.2,1.7-2.8,2.5-3,.9-.3,1.9-.3,5.8-1.1,2.2,2.9,5.3,1.7,9.4.1,1.9,4.5,2.5,7.5,1.9,8.9a4.493,4.493,0,0,1,1.2.6c0,1.7,0,3.3.1,5a25.414,25.414,0,0,1-10.1-.4,48.1,48.1,0,0,1-4.8-1.5c-2.4-.9-6.8-2.4-7.3-3.2.1-1.5.1-3,.2-4.5.3-.2.7-.6,1.1-.9"/>
        <path id="Path_1009" data-name="Path 1009" class="cls-5" d="M1304.3,850.7c-.2,1.5-.3,1.5-.7,1.5a4.408,4.408,0,0,1-1.4-.3,8,8,0,0,0-2.4-.4c-1-.1-2.1,0-5.1,1.3v6.8c-.6.3-1,.6-1.5.9.1,1.4.3,2.9.4,4.2,5.8,1.1,10.6.3,12.4-.7,0-.7.1-1.4.1-2.1,2.9-.6,3.7-1.5,4-2-.1-.8-.2-1.4-.3-2.2a16.986,16.986,0,0,1-1.7-3.7c-.3-.8-.6-1-1.4-1.4-.9-.5-2.3-1.3-2.4-1.9"/>
      </g>
      <g id="Group_1470" data-name="Group 1470">
        <path id="Path_1010" data-name="Path 1010" class="cls-5" d="M1303.1,647.2c1.8-6.1,1.5-8.8,1.1-11.1a18.336,18.336,0,0,0-1.9-5.6,10.934,10.934,0,0,0-2.6-3.2,6.74,6.74,0,0,0-3.4-1.3,17.165,17.165,0,0,0-4.6-.2,22.848,22.848,0,0,0-5.5,1.5c-2.1.9-4.4,2.2-8.6,6.8a71.15,71.15,0,0,0,6.7,4,3.63,3.63,0,0,0,2.9.4,3.384,3.384,0,0,1,2.2.1c1,.4,2.6,1.4,2.8,6.3,3.5.8,7.1,1.6,10.9,2.3"/>
      </g>
      <g id="Group_1471" data-name="Group 1471">
        <path id="Path_1011" data-name="Path 1011" class="cls-6" d="M1317.5,680.7c-.8,23.6-7.7,61.3-5.3,72.8v2c-9.9-3.4-30.3.2-45-2.4.1-3.1.2-5.8.4-8.3-2.3-.2-4.5-.4-6.8-.7-.1-13.2,1.9-26.9,2.8-36.3.9-9.6.8-14.9,1-19.8a56.4,56.4,0,0,1,1.8-12.9,14.4,14.4,0,0,1,4.5-7.9c2.3-2,5.8-3.5,15.7-7.2,6.3.2,12.7.4,18.9.7,14,6.9,15,8.8,15.6,18.8.7,9.9,1,28,.9,38.5-.1,10.7-.7,14-1.8,19.2s-2.8,12.1-4.6,16.4h-3.4"/>
        <path id="Path_1012" data-name="Path 1012" class="cls-7" d="M1267.6,744.7c.9-8.9,3.5-13.7,5.2-18.8,1.5-5.3,2-11.1-3.4-46"/>
      </g>
      <path id="Path_1013" data-name="Path 1013" d="M706,778.8c1.5-61.9,4.5-100.7,7-109.4,11.6,7.9,17.4,20.6,22.3,35.7s9,32.7,17.9,66.2c-18.8,6-34.7,8.6-47.2,7.5"/>
      <path id="Path_1014" data-name="Path 1014" class="cls-8" d="M724.1,687.6c.9,4.3.3,21-1.8,50.3l-10.3.3q-.6-34.65,0-47.7"/>
      <path id="Path_1015" data-name="Path 1015" class="cls-9" d="M713.8,665.7c6.5-6.8,13-13.5,19.4-20.4,1,6.6.4,8.3.6,9.4.1,1.1.8,1.5,1.2,2.1s.8,1.1.6,1.8c-.2.6-1.1,1.1-1.5,1.5s-.4.7-.7,1.7c-.3,1.1-.9,3-1.3,4.1-.6,1.1-.9,1.3-2.1,1.1a27.365,27.365,0,0,0-4.3-.8c-1.3-.1-2.1.3-2.8,12.5-3.3-3.2-6.6-6.3-9.9-9.5.2-1.1.6-2.3.8-3.5"/>
      <path id="Path_1016" data-name="Path 1016" class="cls-9" d="M719.1,805.2c-3.9-.8-7.8-1.7-11.7-2.4-10.3,10-18.6,19.9-24.8,29.7,2.1,2.8,4.3,5.5,6.4,8.1,6-9.3,16-21.2,30.1-35.4"/>
      <path id="Path_1017" data-name="Path 1017" class="cls-9" d="M741.5,848.5c3.6.4,7.3.8,10.8,1.2-1.9-8-2-22.1-.6-42.3-5,.1-9.8.1-14.8.2.4,15.6,1.4,18.9,2.3,22.7,1,3.6,1.9,7.7,2.3,18.2"/>
      <path id="Path_1018" data-name="Path 1018" class="cls-9" d="M713.9,738.2c1,20.8.1,22.6-.7,24.2a22.843,22.843,0,0,0-1.8,5.2c-.2,1.9,0,3.9,1.3,5.2a5.979,5.979,0,0,0,5.7,1.2c1.7-.7,2.4-2.5,3-4.1a10.357,10.357,0,0,0,.9-4.3c-.1-1.5-.6-3.6-1-8.6s-.8-12.8-.9-19.2c-2.2.1-4.4.2-6.7.3"/>
      <path id="Path_1019" data-name="Path 1019" class="cls-10" d="M708.5,778.9c13.7-2.2,27.3-4.4,41-6.6,5.1,20.9,8.4,32,9.9,33.1-9.4,4-26.6,3.1-52-2.8.3-7.8.8-15.7,1.1-23.7"/>
      <path id="Path_1020" data-name="Path 1020" class="cls-11" d="M671.2,839.4c1.5-2.5,5.3-4.8,11.3-6.9,2.1,2.8,4.3,5.5,6.4,8.1.9,14.3,3.3,16.4,4.6,17.9s1.5,2.4.6,2.9c-1,.4-3.2.3-22.9-22"/>
      <path id="Path_1021" data-name="Path 1021" class="cls-11" d="M754.4,849.9c-4.7-.6-9.6-1.1-14.3-1.7-.3,4.8-.7,9.7-1.1,14.5,3.5.1,7.2.2,10.7.3,1.7-1,5.9.9,22.7-1.4-.5-2.4-8.1-3.3-18-11.7"/>
      <path id="Path_1022" data-name="Path 1022" class="cls-12" d="M709.3,668c-6.4,16.8-7.9,30.9-4.5,42.1,2.9-19.9,4.5-33.9,4.5-42.1-3.2-10.2-2.8-16.7-1.5-20.8s3.2-5.7,5.3-6.8a14.176,14.176,0,0,1,7-1.5c2.9.1,6.5.7,13.2,6.5-4.8,6.7-13.6,18.6-24,22.6"/>
    </g>
  </g>
</svg>
