<svg xmlns="http://www.w3.org/2000/svg" viewBox="0 0 916 135"><defs><style>.cls-1,.cls-2,.cls-3,.cls-4,.cls-5{fill:none;stroke:#000;}.cls-1,.cls-2{stroke-linecap:round;}.cls-1,.cls-2,.cls-4{stroke-linejoin:round;}.cls-1{stroke-dasharray:2 5;}.cls-3,.cls-5{stroke-miterlimit:10;}.cls-5{stroke-width:0.25px;}</style></defs><title>Artboard 3</title><g id="Layer_01" data-name="Layer 01"><path class="cls-1" d="M528.74,95.75a14,14,0,0,0,2.94,5.85,14.39,14.39,0,0,0,2.46,2.41c3.63,2.57,7.08,3.09,11.36,2.61,7.65-.85,13.5-6.34,16.42-13.05,5.84-13.43-.07-32.62-16-34.74-7.72-1-14.56,3-18.68,9.2-4.56,6.86-4.49,13.53-4.06,21.11.46,8.26,3.48,13.67,9.78,18.87,2.52,2.08,5.36,3.7,7.79,5.91s5.91,6.39,5.79,10.33"/><line class="cls-2" x1="488.7" y1="68.32" x2="486" y2="71.02"/><line class="cls-2" x1="488.7" y1="68.32" x2="491.4" y2="71.02"/><line class="cls-2" x1="488.7" y1="68.32" x2="491.4" y2="65.62"/><line class="cls-2" x1="488.7" y1="68.32" x2="486" y2="65.62"/><path class="cls-2" d="M499.45,75.11V62.29a2.83,2.83,0,0,0-2.83-2.82H480.78A2.83,2.83,0,0,0,478,62.29V75.11"/><line class="cls-2" x1="477.36" y1="86.28" x2="500.04" y2="86.28"/><line class="cls-2" x1="477.36" y1="83.41" x2="500.04" y2="83.41"/><line class="cls-2" x1="477.36" y1="97.33" x2="500.04" y2="97.33"/><line class="cls-2" x1="477.36" y1="100.21" x2="500.04" y2="100.21"/><line class="cls-2" x1="477.36" y1="108.03" x2="500.04" y2="108.03"/><polyline class="cls-3" points="477.36 124.25 477.36 75.11 500.04 75.11 500.04 124.25"/><polygon class="cls-2" points="433.59 82 444.38 82 450.24 108.38 450.24 112.65 445.28 116.25 438.99 112.15 432.69 116.25 427.73 112.65 427.73 108.38 433.59 82"/><line class="cls-4" x1="450.24" y1="124.25" x2="450.24" y2="112.65"/><line class="cls-4" x1="427.73" y1="124.25" x2="427.73" y2="112.65"/><polygon points="433.59 82 444.38 82 439.45 59.83 438.52 59.83 433.59 82"/><path d="M392.11,43h-14.8V36.7a1.21,1.21,0,0,1,.87-1.29l13.5-5.55c.27-.11.43,0,.43.29Z"/><path class="cls-2" d="M400.49,94.62V68.67a9.77,9.77,0,0,0-6.74-9.29.72.72,0,0,1-.57-.79V44.06c0-.76-.31-1.07-1.07-1.07h-14.8c-.75,0-1.07.31-1.07,1.07V58.59a.71.71,0,0,1-.57.79,9.77,9.77,0,0,0-6.73,9.29v26"/><path d="M332.82,61.25a2.31,2.31,0,0,0-4.57,0l-1.56,9.4h7.69Z"/><path class="cls-4" d="M315.91,124.25V114.1c.2-1.47.4-2.94.61-4.41a164,164,0,0,1,4.3-20.94l5-18.1h9.51l5,18.1a164,164,0,0,1,4.3,20.94c.21,1.47.41,2.94.61,4.41v10.15"/><line class="cls-4" x1="368.94" y1="94.62" x2="368.94" y2="124.25"/><line class="cls-4" x1="400.49" y1="94.62" x2="400.49" y2="124.25"/></g><g id="Layer_2" data-name="Layer 2"><rect class="cls-5" y="124.25" width="916" height="10.52"/></g></svg>