<svg xmlns="http://www.w3.org/2000/svg" viewBox="0 0 916 135"><defs><style>.cls-1,.cls-2,.cls-3,.cls-4,.cls-5{fill:none;stroke:#000;}.cls-1,.cls-3{stroke-linecap:round;stroke-linejoin:round;}.cls-1{stroke-dasharray:2 5;}.cls-4,.cls-5{stroke-miterlimit:10;}.cls-5{stroke-width:0.25px;}</style></defs><title>Artboard 6</title><g id="Layer_01" data-name="Layer 01"><path class="cls-1" d="M528.74,67.31a14,14,0,0,0,2.94,5.85,14.39,14.39,0,0,0,2.46,2.41c3.63,2.57,7.08,3.09,11.36,2.61,7.65-.85,13.5-6.34,16.42-13.05,5.84-13.43-.07-32.62-16-34.74-7.72-1-14.56,3-18.68,9.2-4.56,6.86-4.49,13.53-4.06,21.11.46,8.26,3.48,13.67,9.78,18.87,2.52,2.08,5.36,3.7,7.79,5.91s5.91,6.39,5.79,10.33"/><path d="M392.11,72.78h-14.8V66.5a1.22,1.22,0,0,1,.87-1.3l13.5-5.54c.27-.11.43,0,.43.29Z"/><path class="cls-2" d="M400.49,124.42v-26a9.78,9.78,0,0,0-6.74-9.29.71.71,0,0,1-.57-.78V73.85c0-.76-.31-1.07-1.07-1.07h-14.8c-.75,0-1.07.31-1.07,1.07V88.39a.7.7,0,0,1-.57.78,9.78,9.78,0,0,0-6.73,9.29v26"/><path d="M332.82,61.42a2.31,2.31,0,0,0-4.57,0l-1.56,9.39h7.69Z"/><path class="cls-2" d="M315.91,124.42V114.26c.2-1.47.4-2.94.61-4.41a163.88,163.88,0,0,1,4.3-20.93l5-18.11h9.51q2.47,9,5,18.11a163.88,163.88,0,0,1,4.3,20.93c.21,1.47.41,2.94.61,4.41v10.16"/><polygon class="cls-3" points="433.59 82.16 444.38 82.16 450.24 108.55 450.24 112.81 445.28 116.41 438.99 112.31 432.69 116.41 427.73 112.81 427.73 108.55 433.59 82.16"/><line class="cls-2" x1="450.24" y1="124.42" x2="450.24" y2="112.81"/><line class="cls-2" x1="427.73" y1="124.42" x2="427.73" y2="112.81"/><polygon points="433.59 82.16 444.38 82.16 439.45 59.99 438.52 59.99 433.59 82.16"/><line class="cls-3" x1="488.7" y1="68.48" x2="486" y2="71.19"/><line class="cls-3" x1="488.7" y1="68.48" x2="491.4" y2="71.19"/><line class="cls-3" x1="488.7" y1="68.48" x2="491.4" y2="65.78"/><line class="cls-3" x1="488.7" y1="68.48" x2="486" y2="65.78"/><path class="cls-3" d="M499.45,75.28V62.46a2.83,2.83,0,0,0-2.83-2.83H480.78A2.83,2.83,0,0,0,478,62.46V75.28"/><line class="cls-3" x1="477.36" y1="86.44" x2="500.04" y2="86.44"/><line class="cls-3" x1="477.36" y1="83.57" x2="500.04" y2="83.57"/><line class="cls-3" x1="477.36" y1="97.5" x2="500.04" y2="97.5"/><line class="cls-3" x1="477.36" y1="100.37" x2="500.04" y2="100.37"/><line class="cls-3" x1="477.36" y1="108.2" x2="500.04" y2="108.2"/><polyline class="cls-4" points="477.36 124.42 477.36 75.28 500.04 75.28 500.04 124.42"/><line class="cls-1" x1="546.5" y1="95.81" x2="546.5" y2="124.42"/></g><g id="Layer_2" data-name="Layer 2"><rect class="cls-5" y="124.42" width="916" height="10.52"/></g></svg>