<svg xmlns="http://www.w3.org/2000/svg" viewBox="0 0 916 135"><defs><style>.cls-1,.cls-2,.cls-3,.cls-4,.cls-5{fill:none;stroke:#000;}.cls-1,.cls-2{stroke-linecap:round;}.cls-1,.cls-2,.cls-4{stroke-linejoin:round;}.cls-1{stroke-dasharray:2 5;}.cls-3,.cls-5{stroke-miterlimit:10;}.cls-5{stroke-width:0.25px;}</style></defs><title>Artboard 2</title><g id="Layer_01" data-name="Layer 01"><path class="cls-1" d="M528.74,96a15.23,15.23,0,0,0,5.4,8.26c3.63,2.57,7.08,3.09,11.36,2.61,7.65-.85,13.5-6.34,16.42-13,5.84-13.43-.07-32.62-16-34.74-7.72-1-14.56,3-18.68,9.2-4.56,6.86-4.49,13.53-4.06,21.11.46,8.26,3.48,13.67,9.78,18.87,2.52,2.08,5.36,3.7,7.79,5.91s5.91,6.39,5.79,10.34"/><line class="cls-2" x1="488.7" y1="68.54" x2="486" y2="71.24"/><line class="cls-2" x1="488.7" y1="68.54" x2="491.4" y2="71.24"/><line class="cls-2" x1="488.7" y1="68.54" x2="491.4" y2="65.84"/><line class="cls-2" x1="488.7" y1="68.54" x2="486" y2="65.84"/><path class="cls-2" d="M499.45,75.34V62.52a2.83,2.83,0,0,0-2.83-2.83H480.78A2.83,2.83,0,0,0,478,62.52V75.34"/><line class="cls-2" x1="477.36" y1="86.5" x2="500.04" y2="86.5"/><line class="cls-2" x1="477.36" y1="83.63" x2="500.04" y2="83.63"/><line class="cls-2" x1="477.36" y1="97.55" x2="500.04" y2="97.55"/><line class="cls-2" x1="477.36" y1="100.43" x2="500.04" y2="100.43"/><line class="cls-2" x1="477.36" y1="108.25" x2="500.04" y2="108.25"/><polyline class="cls-3" points="477.36 124.47 477.36 75.33 500.04 75.33 500.04 124.47"/><polygon class="cls-2" points="433.59 82.22 444.38 82.22 450.24 108.6 450.24 112.87 445.28 116.47 438.99 112.37 432.69 116.47 427.73 112.87 427.73 108.6 433.59 82.22"/><line class="cls-4" x1="450.24" y1="124.48" x2="450.24" y2="112.87"/><line class="cls-4" x1="427.73" y1="124.48" x2="427.73" y2="112.87"/><polygon points="433.59 82.22 444.38 82.22 439.45 60.05 438.52 60.05 433.59 82.22"/><path d="M392.11,72.84h-14.8V66.55a1.21,1.21,0,0,1,.87-1.29l13.5-5.54c.27-.11.43,0,.43.29Z"/><path class="cls-4" d="M400.49,124.48v-26a9.77,9.77,0,0,0-6.74-9.29.72.72,0,0,1-.57-.79V73.91c0-.76-.31-1.07-1.07-1.07h-14.8c-.75,0-1.07.31-1.07,1.07V88.44a.71.71,0,0,1-.57.79,9.77,9.77,0,0,0-6.73,9.29v26"/><path d="M332.82,31.52a2.31,2.31,0,0,0-4.57,0l-1.56,9.39h7.69Z"/><path class="cls-4" d="M315.91,124.48V84.36c.2-1.47.4-2.94.61-4.41A164.24,164.24,0,0,1,320.82,59l5-18.11h9.51q2.47,9.06,5,18.11A164.24,164.24,0,0,1,344.55,80c.21,1.47.41,2.94.61,4.41v40.12"/></g><g id="Layer_2" data-name="Layer 2"><rect class="cls-5" y="124.48" width="916" height="10.52"/></g></svg>