<svg xmlns="http://www.w3.org/2000/svg" viewBox="0 0 916 135"><defs><style>.cls-1,.cls-2,.cls-3,.cls-4,.cls-5{fill:none;stroke:#000;}.cls-1,.cls-2{stroke-linecap:round;}.cls-1,.cls-2,.cls-4{stroke-linejoin:round;}.cls-1{stroke-dasharray:2 5;}.cls-3,.cls-5{stroke-miterlimit:10;}.cls-5{stroke-width:0.25px;}</style></defs><title>Artboard 4</title><g id="Layer_01" data-name="Layer 01"><path class="cls-1" d="M528.74,95.84a13.91,13.91,0,0,0,2.94,5.85,13.69,13.69,0,0,0,2.46,2.41c3.63,2.58,7.08,3.1,11.36,2.62,7.65-.85,13.5-6.34,16.42-13.06,5.84-13.43-.07-32.62-16-34.74-7.72-1-14.56,3-18.68,9.21-4.56,6.85-4.49,13.53-4.06,21.1.46,8.27,3.48,13.67,9.78,18.88,2.52,2.08,5.36,3.7,7.79,5.91s5.91,6.38,5.79,10.33"/><line class="cls-2" x1="488.7" y1="68.41" x2="486" y2="71.12"/><line class="cls-2" x1="488.7" y1="68.41" x2="491.4" y2="71.12"/><line class="cls-2" x1="488.7" y1="68.41" x2="491.4" y2="65.71"/><line class="cls-2" x1="488.7" y1="68.41" x2="486" y2="65.71"/><path class="cls-2" d="M499.45,75.21V62.39a2.83,2.83,0,0,0-2.83-2.83H480.78A2.83,2.83,0,0,0,478,62.39V75.21"/><line class="cls-2" x1="477.36" y1="86.37" x2="500.04" y2="86.37"/><line class="cls-2" x1="477.36" y1="83.5" x2="500.04" y2="83.5"/><line class="cls-2" x1="477.36" y1="97.43" x2="500.04" y2="97.43"/><line class="cls-2" x1="477.36" y1="100.3" x2="500.04" y2="100.3"/><line class="cls-2" x1="477.36" y1="108.13" x2="500.04" y2="108.13"/><polyline class="cls-3" points="477.36 124.35 477.36 75.21 500.04 75.21 500.04 124.35"/><polygon class="cls-2" points="433.59 52.61 444.38 52.61 450.24 79 450.24 83.26 445.28 86.86 438.99 82.76 432.69 86.86 427.73 83.26 427.73 79 433.59 52.61"/><line class="cls-2" x1="450.24" y1="94.87" x2="450.24" y2="83.26"/><line class="cls-2" x1="427.73" y1="94.87" x2="427.73" y2="83.26"/><polygon points="433.59 52.61 444.38 52.61 439.45 30.44 438.52 30.44 433.59 52.61"/><path d="M392.11,72.71h-14.8V66.43a1.2,1.2,0,0,1,.87-1.29l13.5-5.55c.27-.11.43,0,.43.29Z"/><path class="cls-4" d="M400.49,124.35v-26a9.79,9.79,0,0,0-6.74-9.29.71.71,0,0,1-.57-.78V73.78c0-.75-.31-1.07-1.07-1.07h-14.8c-.75,0-1.07.32-1.07,1.07V88.32a.7.7,0,0,1-.57.78,9.79,9.79,0,0,0-6.73,9.29v26"/><path d="M332.82,61.35a2.31,2.31,0,0,0-4.57,0l-1.56,9.39h7.69Z"/><path class="cls-4" d="M315.91,124.35V114.19c.2-1.47.4-2.94.61-4.41a164.24,164.24,0,0,1,4.3-20.93l5-18.11h9.51q2.47,9.06,5,18.11a164.24,164.24,0,0,1,4.3,20.93c.21,1.47.41,2.94.61,4.41v10.16"/><line class="cls-4" x1="427.73" y1="94.87" x2="427.73" y2="124.35"/><line class="cls-4" x1="450.24" y1="94.87" x2="450.24" y2="124.35"/></g><g id="Layer_2" data-name="Layer 2"><rect class="cls-5" y="124.35" width="916" height="10.52"/></g></svg>