<svg xmlns="http://www.w3.org/2000/svg" viewBox="0 0 916 135"><defs><style>.cls-1,.cls-2,.cls-3,.cls-4,.cls-5{fill:none;stroke:#000;}.cls-1,.cls-2{stroke-linecap:round;}.cls-1,.cls-2,.cls-4{stroke-linejoin:round;}.cls-1{stroke-dasharray:2 5;}.cls-3,.cls-5{stroke-miterlimit:10;}.cls-5{stroke-width:0.25px;}</style></defs><title>Artboard 5</title><g id="Layer_01" data-name="Layer 01"><path class="cls-1" d="M528.74,95.94a13.91,13.91,0,0,0,2.94,5.85,13.69,13.69,0,0,0,2.46,2.41c3.63,2.58,7.08,3.1,11.36,2.62,7.65-.85,13.5-6.34,16.42-13.06,5.84-13.43-.07-32.62-16-34.74-7.72-1-14.56,3-18.68,9.21-4.56,6.85-4.49,13.53-4.06,21.1.46,8.27,3.48,13.67,9.78,18.88,2.52,2.08,5.36,3.7,7.79,5.91s5.91,6.38,5.79,10.33"/><line class="cls-2" x1="488.7" y1="39.36" x2="486" y2="42.07"/><line class="cls-2" x1="488.7" y1="39.36" x2="491.4" y2="42.07"/><line class="cls-2" x1="488.7" y1="39.36" x2="491.4" y2="36.66"/><line class="cls-2" x1="488.7" y1="39.36" x2="486" y2="36.66"/><path class="cls-2" d="M499.45,46.16V33.34a2.83,2.83,0,0,0-2.83-2.83H480.78A2.83,2.83,0,0,0,478,33.34V46.16"/><line class="cls-2" x1="477.36" y1="57.32" x2="500.04" y2="57.32"/><line class="cls-2" x1="477.36" y1="54.45" x2="500.04" y2="54.45"/><line class="cls-2" x1="477.36" y1="68.38" x2="500.04" y2="68.38"/><line class="cls-2" x1="477.36" y1="71.25" x2="500.04" y2="71.25"/><line class="cls-2" x1="477.36" y1="79.08" x2="500.04" y2="79.08"/><polyline class="cls-3" points="477.36 95.3 477.36 46.16 500.04 46.16 500.04 95.3"/><path d="M392.11,72.81h-14.8V66.53a1.2,1.2,0,0,1,.87-1.29l13.5-5.55c.27-.11.43,0,.43.29Z"/><path class="cls-4" d="M400.49,124.45v-26a9.79,9.79,0,0,0-6.74-9.29.71.71,0,0,1-.57-.78V73.88c0-.75-.31-1.07-1.07-1.07h-14.8c-.75,0-1.07.32-1.07,1.07V88.42a.7.7,0,0,1-.57.78,9.79,9.79,0,0,0-6.73,9.29v26"/><path d="M332.82,61.45a2.31,2.31,0,0,0-4.57,0l-1.56,9.39h7.69Z"/><path class="cls-4" d="M315.91,124.45V114.29c.2-1.47.4-2.94.61-4.41A164.24,164.24,0,0,1,320.82,89l5-18.11h9.51q2.47,9.06,5,18.11a164.24,164.24,0,0,1,4.3,20.93c.21,1.47.41,2.94.61,4.41v10.16"/><polygon class="cls-2" points="433.59 82.19 444.38 82.19 450.24 108.58 450.24 112.84 445.28 116.44 438.99 112.34 432.69 116.44 427.73 112.84 427.73 108.58 433.59 82.19"/><line class="cls-4" x1="450.24" y1="124.45" x2="450.24" y2="112.84"/><line class="cls-4" x1="427.73" y1="124.45" x2="427.73" y2="112.84"/><polygon points="433.59 82.19 444.38 82.19 439.45 60.02 438.52 60.02 433.59 82.19"/><line class="cls-3" x1="477.36" y1="95.3" x2="477.36" y2="124.36"/><line class="cls-3" x1="500.04" y1="95.3" x2="500.04" y2="124.36"/></g><g id="Layer_2" data-name="Layer 2"><rect class="cls-5" y="124.45" width="916" height="10.52"/></g></svg>